<svg width="16" height="12" viewBox="0 0 16 12" fill="none" xmlns="http://www.w3.org/2000/svg">
<path d="M12.995 3.00409H3.40501L4.70501 1.71409C4.89332 1.52579 4.9991 1.27039 4.9991 1.00409C4.9991 0.73779 4.89332 0.482395 4.70501 0.294092C4.51671 0.105788 4.26132 1.9841e-09 3.99501 0C3.72871 -1.9841e-09 3.47332 0.105788 3.28501 0.294092L0.285014 3.29409C0.193973 3.3892 0.122608 3.50134 0.0750135 3.62409C-0.0250045 3.86755 -0.0250045 4.14063 0.0750135 4.38409C0.122608 4.50684 0.193973 4.61899 0.285014 4.71409L3.28501 7.71409C3.37798 7.80782 3.48858 7.88221 3.61044 7.93298C3.7323 7.98375 3.863 8.00989 3.99501 8.00989C4.12703 8.00989 4.25773 7.98375 4.37959 7.93298C4.50145 7.88221 4.61205 7.80782 4.70501 7.71409C4.79874 7.62113 4.87314 7.51053 4.9239 7.38867C4.97467 7.26681 5.00081 7.1361 5.00081 7.00409C5.00081 6.87208 4.97467 6.74137 4.9239 6.61951C4.87314 6.49766 4.79874 6.38705 4.70501 6.29409L3.40501 5.00409H12.995C13.2602 5.00409 13.5146 5.10945 13.7021 5.29699C13.8897 5.48452 13.995 5.73888 13.995 6.00409V10.0041C13.995 10.2693 14.1004 10.5237 14.2879 10.7112C14.4754 10.8987 14.7298 11.0041 14.995 11.0041C15.2602 11.0041 15.5146 10.8987 15.7021 10.7112C15.8897 10.5237 15.995 10.2693 15.995 10.0041V6.00409C15.995 5.20844 15.6789 4.44538 15.1163 3.88277C14.5537 3.32016 13.7907 3.00409 12.995 3.00409V3.00409Z"/>
</svg>
