<svg width="35" height="35" viewBox="0 0 35 35" fill="none" xmlns="http://www.w3.org/2000/svg">
<path fill-rule="evenodd" clip-rule="evenodd" d="M3.67929 12.6482C4.6035 13.0756 5.69186 13.5444 6.94438 14.0839L8.56015 14.7799C9.90363 15.3586 16.99 18.4531 17.7126 18.4531C18.4352 18.4531 19.107 18.1637 20.4504 17.5851L22.0662 16.8891C23.3187 16.3496 30.3965 12.8093 31.3207 12.3818L33.2081 13.1948C34.4027 13.7094 35 13.9666 35 14.3741C35 14.7815 34.4027 15.0388 33.2081 15.5533L19.0815 22.1298C18.4098 22.4191 18.0739 22.5638 17.7126 22.5638C17.3513 22.5638 17.0155 22.4191 16.3438 22.1298L1.79192 15.8197C0.597307 15.3051 0 15.0478 0 14.6404C0 14.233 0.597307 13.9757 1.79192 13.4611L3.67929 12.6482Z" fill="white"/>
<path fill-rule="evenodd" clip-rule="evenodd" d="M3.67929 18.9287C4.6035 19.3561 5.69186 19.8249 6.94438 20.3644L8.56015 21.0604C9.90363 21.6391 16.99 24.7336 17.7126 24.7336C18.4352 24.7336 19.107 24.4442 20.4504 23.8656L22.0662 23.1696C23.3187 22.6301 30.3965 19.0898 31.3207 18.6624L33.2081 19.4753C34.4027 19.9899 35 20.2471 35 20.6546C35 21.062 34.4027 21.3193 33.2081 21.8338L19.0815 28.4103C18.4098 28.6996 18.0739 28.8443 17.7126 28.8443C17.3513 28.8443 17.0155 28.6996 16.3438 28.4103L1.79192 22.1002C0.597307 21.5856 0 21.3283 0 20.9209C0 20.5135 0.597307 20.2562 1.79192 19.7416L3.67929 18.9287Z" fill="white"/>
<path fill-rule="evenodd" clip-rule="evenodd" d="M3.67929 25.0844C4.6035 25.5118 5.69186 25.9806 6.94438 26.5201L8.56015 27.2161C9.90363 27.7948 16.99 30.8893 17.7126 30.8893C18.4352 30.8893 19.107 30.6 20.4504 30.0213L22.0662 29.3253C23.3187 28.7858 30.3965 25.2455 31.3207 24.818L33.2081 25.631C34.4027 26.1456 35 26.4028 35 26.8103C35 27.2177 34.4027 27.475 33.2081 27.9896L19.0815 34.566C18.4098 34.8553 18.0739 35 17.7126 35C17.3513 35 17.0155 34.8553 16.3438 34.566L1.79192 28.2559C0.597307 27.7413 0 27.484 0 27.0766C0 26.6692 0.597307 26.4119 1.79192 25.8973L3.67929 25.0844Z" fill="white"/>
<path d="M16.1706 0.434009L1.79192 6.78461C0.597307 7.29917 0 7.55645 0 7.96387C0 8.3713 0.597307 8.62857 1.79192 9.14313L16.1706 15.5531C16.8423 15.8424 17.1782 15.9871 17.5395 15.9871C17.9008 15.9871 18.2366 15.8424 18.9084 15.5531L33.2081 9.14314C34.4027 8.62858 35 8.3713 35 7.96387C35 7.55645 34.4027 7.29917 33.2081 6.78461L18.9084 0.43401C18.2366 0.14467 17.9008 0 17.5395 0C17.1782 0 16.8423 0.14467 16.1706 0.434009Z" fill="white"/>
</svg>
