<svg width="14" height="21" viewBox="0 0 14 21" fill="none" xmlns="http://www.w3.org/2000/svg">
<path d="M5 12L6 12L6 13L5 13L5 12ZM1.28299 12.3302L0.523736 12.9809L0.523736 12.9809L1.28299 12.3302ZM7 19L7.75926 19.6508L7 20.5366L6.24074 19.6508L7 19ZM12.717 12.3302L13.4763 12.9809L13.4763 12.9809L12.717 12.3302ZM9 12L9 13L8 13L8 12L9 12ZM6 -5.96244e-08L6 12L4 12L4 -3.57746e-08L6 -5.96244e-08ZM5 13L1.43484 13L1.43484 11L5 11L5 13ZM2.04225 11.6794L7.75926 18.3492L6.24074 19.6508L0.523736 12.9809L2.04225 11.6794ZM6.24074 18.3492L11.9578 11.6794L13.4763 12.9809L7.75926 19.6508L6.24074 18.3492ZM12.5652 13L9 13L9 11L12.5652 11L12.5652 13ZM8 12L8 -8.34742e-08L10 -1.07324e-07L10 12L8 12ZM11.9577 11.6794C11.513 12.1983 11.8817 13 12.5652 13L12.5652 11C13.5904 11 14.1435 12.2025 13.4763 12.9809L11.9577 11.6794ZM1.43484 13C2.11833 13 2.48705 12.1983 2.04225 11.6794L0.523736 12.9809C-0.143469 12.2025 0.409619 11 1.43484 11L1.43484 13Z"/>
</svg>
