<svg width="30" height="30" viewBox="0 0 30 30" fill="none" xmlns="http://www.w3.org/2000/svg">
<path d="M15.1852 0C6.99259 0 0 6.705 0 15C0 23.295 6.99259 30 15.1852 30C23.3778 30 30 23.295 30 15C30 6.705 23.3778 0 15.1852 0ZM14.8148 28.125C8.28148 28.125 1.85185 21.615 1.85185 15C1.85185 8.385 8.65185 1.875 15.1852 1.875C21.7185 1.875 28.1481 8.385 28.1481 15C28.1481 21.615 21.3481 28.125 14.8148 28.125ZM20.5037 7.5L15.1852 12.885L9.86667 7.5L7.77778 9.615L13.0963 15L7.77778 20.385L9.86667 22.5L15.1852 17.115L20.5037 22.5L22.5926 20.385L17.2741 15L22.5926 9.615L20.5037 7.5Z" fill="#c08b8b"/>
</svg>
