<svg width="25px" height="25px"  id="Layer_1" data-name="Layer 1" xmlns="http://www.w3.org/2000/svg" viewBox="0 0 315.44 315.15">
  <rect x="109.43" y="267.25" width="69.15" height="16" transform="translate(-158.7 205.46) rotate(-49.4)"/>
  <path d="M108.55,164.5,103.42,151H59.77L54.64,164.8q-3,8.05-5.13,10.87c-1.42,1.87-3.74,2.82-6.95,2.83a10.38,10.38,0,0,1-3.93-.77,10.22,10.22,0,0,1-3.32-2.23,9.21,9.21,0,0,1-3.15-6.81,15.24,15.24,0,0,1,.73-4.54c.49-1.57,1.29-3.74,2.42-6.52L62.77,87.91l2.82-7.21a36.71,36.71,0,0,1,3.52-7A14.47,14.47,0,0,1,74,69.2a15,15,0,0,1,7.49-1.7,15.08,15.08,0,0,1,7.6,1.7A14.68,14.68,0,0,1,94,73.63a31.88,31.88,0,0,1,3.15,5.87q1.28,3.12,3.26,8.32l28.08,69.23q3.3,7.92,3.3,11.5a9.46,9.46,0,0,1-3.12,6.85,10.25,10.25,0,0,1-7.5,3.11,9.82,9.82,0,0,1-4.4-.91,9,9,0,0,1-3.08-2.49,22.83,22.83,0,0,1-2.67-4.84Q109.58,167,108.55,164.5Zm-43-29.79H97.56L81.37,90.4Z" transform="translate(0 0)"/>
  <path d="M266,155.88c-2.64,10-4.29,14.63-7.92,21.56a89.54,89.54,0,0,1-12.61,18.15c12,8,22.77,12.21,39.93,15.62-4.62,5.83-6.82,10-9.68,17.38-19-6.05-30.14-11.66-42.9-21.45-12.35,9.46-24.46,15.36-44.15,21.56a57.18,57.18,0,0,0-9.2-16.5c19-4.62,30.25-9.24,40.81-16.61a98.74,98.74,0,0,1-13.86-19.25c-3.63-6.6-5.28-10.45-8.47-20.46h-2.2c-5.28,0-10.23.22-14.63.66v-17a120.36,120.36,0,0,0,15.07.77H222.4v-7a39.11,39.11,0,0,0-.66-7.48h19a38,38,0,0,0-.66,7.37v7.15H267.9a120.31,120.31,0,0,0,15.18-.77v17a140.7,140.7,0,0,0-14.52-.66Zm-50.27,0a67,67,0,0,0,7.37,16.62,65.35,65.35,0,0,0,9.24,12.32,59.92,59.92,0,0,0,8.69-12.21c3.08-5.39,4.18-8.36,6.6-16.72Z" transform="translate(0 0)"/>
  <path d="M154.5,259.92H28.23A28.24,28.24,0,0,1,0,231.69V28.23A28.24,28.24,0,0,1,28.23,0h96V16h-96A12.22,12.22,0,0,0,16,28.23V231.69a12.22,12.22,0,0,0,12.23,12.23H154.5Z" transform="translate(0 0)"/>
  <path d="M284.5,315.15H135.33c-8.38-.18-15.08-3-19.89-8.26-10-11-8.52-29.39-7.37-44.18.31-4,.61-7.88.61-10.91h16c0,3.65-.32,7.78-.66,12.15-.86,11.11-2,26.32,3.28,32.19,1.12,1.24,3.19,2.89,8.29,3H284.5a12.22,12.22,0,0,0,12.23-12.09c-2.75-68.39-.34-115.37,1.41-149.69,1.74-33.92,2.79-54.4-4-61.32s-27.45-6.42-61.71-5.54c-22.21.56-49.85,1.27-85.65.49l.36-16c35.4.78,62.84.08,84.88-.49,41.24-1.06,61.93-1.59,73.58,10.37s10.58,32.44,8.48,73.31c-1.74,34-4.13,80.66-1.4,148.41v.32a28.24,28.24,0,0,1-28.23,28.23Z" transform="translate(0 0)"/>
  <path d="M148.5,260V244c7.07,0,10.33-.37,11.82-.71,0-1.78-.49-5-.87-7.69-.42-2.94-.89-6.26-1.29-10.19L135.48,32.19C133.46,16,126.83,16,124,16V0c8.81,0,24.07,3.93,27.37,30.26l22.7,193.46c.37,3.65.82,6.82,1.22,9.62,1.22,8.53,2.17,15.26-2.43,20.57C168,259.55,159.31,260,148.5,260Z" transform="translate(0 0)"/>
</svg>