<svg width="16" height="16" viewBox="0 0 16 16" fill="none" xmlns="http://www.w3.org/2000/svg">
<path d="M8.00033 9.99999C8.70757 9.99999 9.38585 9.71904 9.88594 9.21894C10.386 8.71884 10.667 8.04057 10.667 7.33332V3.33332C10.667 2.62608 10.386 1.9478 9.88594 1.44771C9.38585 0.947608 8.70757 0.666656 8.00033 0.666656C7.29308 0.666656 6.6148 0.947608 6.11471 1.44771C5.61461 1.9478 5.33366 2.62608 5.33366 3.33332V7.33332C5.33366 8.04057 5.61461 8.71884 6.11471 9.21894C6.6148 9.71904 7.29308 9.99999 8.00033 9.99999ZM6.66699 3.33332C6.66699 2.9797 6.80747 2.64056 7.05752 2.39051C7.30756 2.14047 7.6467 1.99999 8.00033 1.99999C8.35395 1.99999 8.69309 2.14047 8.94313 2.39051C9.19318 2.64056 9.33366 2.9797 9.33366 3.33332V7.33332C9.33366 7.68694 9.19318 8.02608 8.94313 8.27613C8.69309 8.52618 8.35395 8.66666 8.00033 8.66666C7.6467 8.66666 7.30756 8.52618 7.05752 8.27613C6.80747 8.02608 6.66699 7.68694 6.66699 7.33332V3.33332ZM13.3337 7.33332C13.3337 7.15651 13.2634 6.98694 13.1384 6.86192C13.0134 6.73689 12.8438 6.66666 12.667 6.66666C12.4902 6.66666 12.3206 6.73689 12.1956 6.86192C12.0706 6.98694 12.0003 7.15651 12.0003 7.33332C12.0003 8.39419 11.5789 9.4116 10.8288 10.1617C10.0786 10.9119 9.06119 11.3333 8.00033 11.3333C6.93946 11.3333 5.92204 10.9119 5.1719 10.1617C4.42175 9.4116 4.00033 8.39419 4.00033 7.33332C4.00033 7.15651 3.93009 6.98694 3.80506 6.86192C3.68004 6.73689 3.51047 6.66666 3.33366 6.66666C3.15685 6.66666 2.98728 6.73689 2.86225 6.86192C2.73723 6.98694 2.66699 7.15651 2.66699 7.33332C2.66817 8.63152 3.14281 9.88471 4.00192 10.858C4.86104 11.8312 6.04565 12.4577 7.33366 12.62V14H6.00033C5.82351 14 5.65395 14.0702 5.52892 14.1953C5.4039 14.3203 5.33366 14.4898 5.33366 14.6667C5.33366 14.8435 5.4039 15.013 5.52892 15.1381C5.65395 15.2631 5.82351 15.3333 6.00033 15.3333H10.0003C10.1771 15.3333 10.3467 15.2631 10.4717 15.1381C10.5968 15.013 10.667 14.8435 10.667 14.6667C10.667 14.4898 10.5968 14.3203 10.4717 14.1953C10.3467 14.0702 10.1771 14 10.0003 14H8.66699V12.62C9.95501 12.4577 11.1396 11.8312 11.9987 10.858C12.8578 9.88471 13.3325 8.63152 13.3337 7.33332V7.33332Z" fill="#1D1D21"/>
</svg>
