
<svg width="40" height="64" viewBox="0 0 40 64" fill="none" xmlns="http://www.w3.org/2000/svg">
<path d="M16 56C16 60.4 12.4 64 8 64C3.6 64 0 60.4 0 56C0 51.6 3.6 48 8 48C12.4 48 16 51.6 16 56ZM8 24C3.6 24 0 27.6 0 32C0 36.4 3.6 40 8 40C12.4 40 16 36.4 16 32C16 27.6 12.4 24 8 24ZM8 0C3.6 0 0 3.6 0 8C0 12.4 3.6 16 8 16C12.4 16 16 12.4 16 8C16 3.6 12.4 0 8 0ZM32 16C36.4 16 40 12.4 40 8C40 3.6 36.4 0 32 0C27.6 0 24 3.6 24 8C24 12.4 27.6 16 32 16ZM32 24C27.6 24 24 27.6 24 32C24 36.4 27.6 40 32 40C36.4 40 40 36.4 40 32C40 27.6 36.4 24 32 24ZM32 48C27.6 48 24 51.6 24 56C24 60.4 27.6 64 32 64C36.4 64 40 60.4 40 56C40 51.6 36.4 48 32 48Z"/>
</svg>
