<svg width="9" height="11" viewBox="0 0 9 11" fill="none" xmlns="http://www.w3.org/2000/svg">
	<path d="M4.50033 6.04165C4.35667 6.04165 4.21889 6.09871 4.11731 6.2003C4.01573 6.30188 3.95866 6.43965 3.95866 6.58331V8.20831C3.95866 8.35197 4.01573 8.48975 4.11731 8.59133C4.21889 8.69291 4.35667 8.74998 4.50033 8.74998C4.64398 8.74998 4.78176 8.69291 4.88334 8.59133C4.98492 8.48975 5.04199 8.35197 5.04199 8.20831V6.58331C5.04199 6.43965 4.98492 6.30188 4.88334 6.2003C4.78176 6.09871 4.64398 6.04165 4.50033 6.04165ZM7.20866 3.87498V2.79165C7.20866 2.07335 6.92332 1.38448 6.41541 0.876565C5.90749 0.368654 5.21862 0.083313 4.50033 0.083313C3.78203 0.083313 3.09316 0.368654 2.58524 0.876565C2.07733 1.38448 1.79199 2.07335 1.79199 2.79165V3.87498C1.36102 3.87498 0.94769 4.04618 0.642944 4.35093C0.338197 4.65568 0.166992 5.069 0.166992 5.49998V9.29165C0.166992 9.72262 0.338197 10.1359 0.642944 10.4407C0.94769 10.7454 1.36102 10.9166 1.79199 10.9166H7.20866C7.63964 10.9166 8.05296 10.7454 8.35771 10.4407C8.66245 10.1359 8.83366 9.72262 8.83366 9.29165V5.49998C8.83366 5.069 8.66245 4.65568 8.35771 4.35093C8.05296 4.04618 7.63964 3.87498 7.20866 3.87498ZM2.87533 2.79165C2.87533 2.36067 3.04653 1.94734 3.35128 1.6426C3.65602 1.33785 4.06935 1.16665 4.50033 1.16665C4.9313 1.16665 5.34463 1.33785 5.64937 1.6426C5.95412 1.94734 6.12533 2.36067 6.12533 2.79165V3.87498H2.87533V2.79165ZM7.75032 9.29165C7.75032 9.43531 7.69326 9.57308 7.59167 9.67466C7.49009 9.77625 7.35232 9.83331 7.20866 9.83331H1.79199C1.64833 9.83331 1.51056 9.77625 1.40898 9.67466C1.30739 9.57308 1.25033 9.43531 1.25033 9.29165V5.49998C1.25033 5.35632 1.30739 5.21855 1.40898 5.11696C1.51056 5.01538 1.64833 4.95831 1.79199 4.95831H7.20866C7.35232 4.95831 7.49009 5.01538 7.59167 5.11696C7.69326 5.21855 7.75032 5.35632 7.75032 5.49998V9.29165Z" fill="#989BAA" />
</svg>
