<svg width="50" height="37" viewBox="0 0 50 37" fill="none" xmlns="http://www.w3.org/2000/svg">
<path fill-rule="evenodd" clip-rule="evenodd" d="M18.1147 32.0437C25.5648 32.0437 31.6042 26.0042 31.6042 18.5541C31.6042 11.104 25.5648 5.0645 18.1147 5.0645C10.6646 5.0645 4.62508 11.104 4.62508 18.5541C4.62508 26.0042 10.6646 32.0437 18.1147 32.0437ZM18.1147 33.9708C26.6291 33.9708 33.5313 27.0685 33.5313 18.5541C33.5313 10.0397 26.6291 3.13742 18.1147 3.13742C9.60027 3.13742 2.698 10.0397 2.698 18.5541C2.698 27.0685 9.60027 33.9708 18.1147 33.9708Z" fill="#8B92C0"/>
<path d="M14.2605 10.8458H49.3334V25.4916H14.2605V10.8458Z" fill="#1D1D21"/>
<path d="M22.246 9.28308L21.9189 11.0538L31.7858 12.9001L33.6381 3.02916L31.8733 2.698L30.3522 10.8042L22.246 9.28308Z" fill="#8B92C0"/>
<path d="M11.7006 21.6713C11.3049 21.6713 10.9374 21.612 10.5983 21.4933C10.2648 21.3689 10.0047 21.2135 9.81819 21.0269C9.7334 20.9365 9.69665 20.8347 9.70796 20.7217C9.72492 20.603 9.78145 20.5069 9.87754 20.4334C9.9906 20.3429 10.1008 20.3062 10.2082 20.3232C10.3213 20.3345 10.4174 20.3825 10.4965 20.4673C10.5926 20.5747 10.7452 20.6764 10.9544 20.7725C11.1692 20.863 11.4066 20.9082 11.6666 20.9082C11.9945 20.9082 12.2432 20.8545 12.4128 20.7471C12.588 20.6397 12.6785 20.5012 12.6841 20.3316C12.6898 20.162 12.6078 20.0151 12.4383 19.8907C12.2743 19.7664 11.9719 19.6646 11.531 19.5855C10.96 19.4724 10.5446 19.3028 10.2845 19.0767C10.0302 18.8506 9.90298 18.5736 9.90298 18.2458C9.90298 17.9575 9.98777 17.72 10.1574 17.5335C10.3269 17.3413 10.5446 17.2 10.8103 17.1095C11.0759 17.0134 11.3529 16.9654 11.6412 16.9654C12.0143 16.9654 12.345 17.0248 12.6333 17.1435C12.9216 17.2622 13.1505 17.4261 13.3201 17.6353C13.3992 17.7257 13.436 17.8218 13.4303 17.9235C13.4247 18.0196 13.3766 18.1016 13.2862 18.1694C13.1957 18.2316 13.0883 18.2514 12.964 18.2288C12.8396 18.2062 12.735 18.1553 12.6502 18.0762C12.5089 17.9405 12.3563 17.8472 12.1924 17.7964C12.0284 17.7455 11.8391 17.72 11.6243 17.72C11.3755 17.72 11.1635 17.7624 10.9883 17.8472C10.8187 17.932 10.7339 18.0564 10.7339 18.2203C10.7339 18.3221 10.7594 18.4153 10.8103 18.5001C10.8668 18.5793 10.9742 18.6528 11.1325 18.7206C11.2907 18.7828 11.5225 18.8449 11.8278 18.9071C12.2517 18.9919 12.5852 19.0993 12.8283 19.2293C13.077 19.3594 13.2551 19.512 13.3625 19.6872C13.4699 19.8568 13.5236 20.0546 13.5236 20.2808C13.5236 20.5408 13.4529 20.7754 13.3116 20.9845C13.1759 21.1937 12.9724 21.3604 12.7011 21.4848C12.4354 21.6092 12.1019 21.6713 11.7006 21.6713Z" fill="#8B92C0"/>
<path d="M15.4311 19.9416L15.0326 19.0767L17.5085 17.0417C17.5933 16.9626 17.6866 16.9258 17.7883 16.9315C17.8957 16.9371 17.9862 16.9824 18.0597 17.0672C18.1388 17.1519 18.1756 17.2452 18.1699 17.347C18.1642 17.4487 18.119 17.5392 18.0342 17.6183L15.4311 19.9416ZM15.0326 21.6374C14.9082 21.6374 14.8065 21.6007 14.7274 21.5272C14.6539 21.4481 14.6171 21.3463 14.6171 21.2219V15.4307C14.6171 15.3063 14.6539 15.2074 14.7274 15.1339C14.8065 15.0548 14.9082 15.0152 15.0326 15.0152C15.157 15.0152 15.2559 15.0548 15.3294 15.1339C15.4085 15.2074 15.4481 15.3063 15.4481 15.4307V21.2219C15.4481 21.3463 15.4085 21.4481 15.3294 21.5272C15.2559 21.6007 15.157 21.6374 15.0326 21.6374ZM18.0597 21.595C17.9692 21.6685 17.8675 21.6996 17.7544 21.6883C17.647 21.6826 17.5566 21.6346 17.4831 21.5442L15.7618 19.4159L16.3554 18.8563L18.119 21.0269C18.1925 21.1174 18.2236 21.2163 18.2123 21.3237C18.2066 21.4254 18.1558 21.5159 18.0597 21.595Z" fill="#8B92C0"/>
<path d="M19.9619 21.6374C19.8375 21.6374 19.7329 21.5979 19.6481 21.5187C19.569 21.4339 19.5294 21.3293 19.5294 21.205V17.4318C19.5294 17.3017 19.569 17.1972 19.6481 17.118C19.7329 17.0389 19.8375 16.9993 19.9619 16.9993C20.0919 16.9993 20.1964 17.0389 20.2756 17.118C20.3547 17.1972 20.3943 17.3017 20.3943 17.4318V21.205C20.3943 21.3293 20.3547 21.4339 20.2756 21.5187C20.1964 21.5979 20.0919 21.6374 19.9619 21.6374ZM19.9619 16.2447C19.8092 16.2447 19.6764 16.191 19.5633 16.0836C19.4559 15.9705 19.4022 15.8377 19.4022 15.685C19.4022 15.5324 19.4559 15.4024 19.5633 15.295C19.6764 15.1819 19.8092 15.1254 19.9619 15.1254C20.1145 15.1254 20.2445 15.1819 20.3519 15.295C20.465 15.4024 20.5215 15.5324 20.5215 15.685C20.5215 15.8377 20.465 15.9705 20.3519 16.0836C20.2445 16.191 20.1145 16.2447 19.9619 16.2447Z" fill="#8B92C0"/>
<path d="M22.4357 23.6215C22.3114 23.6215 22.2068 23.5792 22.122 23.4944C22.0428 23.4152 22.0033 23.3135 22.0033 23.1891V19.3226C22.0089 18.876 22.1135 18.4747 22.317 18.1186C22.5205 17.7624 22.7975 17.4826 23.148 17.2791C23.4984 17.07 23.8941 16.9654 24.3351 16.9654C24.7816 16.9654 25.1801 17.07 25.5306 17.2791C25.8811 17.4826 26.1581 17.7624 26.3616 18.1186C26.5707 18.4747 26.6753 18.876 26.6753 19.3226C26.6753 19.7692 26.5792 20.1705 26.387 20.5267C26.2005 20.8771 25.9433 21.1569 25.6154 21.3661C25.2875 21.5696 24.9173 21.6713 24.5046 21.6713C24.1711 21.6713 23.863 21.6035 23.5804 21.4678C23.3034 21.3265 23.066 21.1372 22.8682 20.8997V23.1891C22.8682 23.3135 22.8286 23.4152 22.7494 23.4944C22.6703 23.5792 22.5657 23.6215 22.4357 23.6215ZM24.3351 20.9082C24.6233 20.9082 24.8805 20.8404 25.1067 20.7047C25.3328 20.5634 25.5108 20.374 25.6408 20.1366C25.7765 19.8935 25.8443 19.6222 25.8443 19.3226C25.8443 19.0174 25.7765 18.746 25.6408 18.5086C25.5108 18.2655 25.3328 18.0762 25.1067 17.9405C24.8805 17.7992 24.6233 17.7285 24.3351 17.7285C24.0524 17.7285 23.7952 17.7992 23.5634 17.9405C23.3373 18.0762 23.1593 18.2655 23.0293 18.5086C22.8992 18.746 22.8342 19.0174 22.8342 19.3226C22.8342 19.6222 22.8992 19.8935 23.0293 20.1366C23.1593 20.374 23.3373 20.5634 23.5634 20.7047C23.7952 20.8404 24.0524 20.9082 24.3351 20.9082Z" fill="#8B92C0"/>
<path d="M28.3976 23.6215C28.2733 23.6215 28.1687 23.5792 28.0839 23.4944C28.0048 23.4152 27.9652 23.3135 27.9652 23.1891V19.3226C27.9708 18.876 28.0754 18.4747 28.2789 18.1186C28.4824 17.7624 28.7594 17.4826 29.1099 17.2791C29.4604 17.07 29.856 16.9654 30.297 16.9654C30.7435 16.9654 31.1421 17.07 31.4925 17.2791C31.843 17.4826 32.12 17.7624 32.3235 18.1186C32.5326 18.4747 32.6372 18.876 32.6372 19.3226C32.6372 19.7692 32.5411 20.1705 32.3489 20.5267C32.1624 20.8771 31.9052 21.1569 31.5773 21.3661C31.2495 21.5696 30.8792 21.6713 30.4665 21.6713C30.133 21.6713 29.825 21.6035 29.5423 21.4678C29.2653 21.3265 29.0279 21.1372 28.8301 20.8997V23.1891C28.8301 23.3135 28.7905 23.4152 28.7114 23.4944C28.6322 23.5792 28.5276 23.6215 28.3976 23.6215ZM30.297 20.9082C30.5853 20.9082 30.8425 20.8404 31.0686 20.7047C31.2947 20.5634 31.4727 20.374 31.6028 20.1366C31.7384 19.8935 31.8063 19.6222 31.8063 19.3226C31.8063 19.0174 31.7384 18.746 31.6028 18.5086C31.4727 18.2655 31.2947 18.0762 31.0686 17.9405C30.8425 17.7992 30.5853 17.7285 30.297 17.7285C30.0143 17.7285 29.7571 17.7992 29.5254 17.9405C29.2992 18.0762 29.1212 18.2655 28.9912 18.5086C28.8612 18.746 28.7962 19.0174 28.7962 19.3226C28.7962 19.6222 28.8612 19.8935 28.9912 20.1366C29.1212 20.374 29.2992 20.5634 29.5254 20.7047C29.7571 20.8404 30.0143 20.9082 30.297 20.9082Z" fill="#8B92C0"/>
<path d="M36.1063 21.6713C35.6371 21.6713 35.2188 21.5724 34.8513 21.3746C34.4896 21.1711 34.2041 20.8941 33.9949 20.5436C33.7914 20.1875 33.6897 19.7805 33.6897 19.3226C33.6897 18.8591 33.7858 18.4521 33.978 18.1016C34.1758 17.7455 34.4472 17.4685 34.792 17.2707C35.1368 17.0672 35.5325 16.9654 35.9791 16.9654C36.42 16.9654 36.7987 17.0643 37.1153 17.2622C37.4318 17.4544 37.6721 17.7229 37.836 18.0677C38.0056 18.4069 38.0904 18.7997 38.0904 19.2463C38.0904 19.3537 38.0536 19.4441 37.9802 19.5176C37.9067 19.5855 37.8134 19.6194 37.7003 19.6194H34.4759L34.4949 19.3249L34.4856 18.941H37.6749L37.3273 19.1785C37.3216 18.8958 37.2651 18.6443 37.1577 18.4238C37.0503 18.1977 36.8976 18.0196 36.6998 17.8896C36.5019 17.7596 36.2617 17.6946 35.9791 17.6946C35.6569 17.6946 35.3799 17.7653 35.1481 17.9066C34.922 18.0479 34.7496 18.2429 34.6309 18.4917C34.5122 18.7347 34.4528 19.0117 34.4528 19.3226C34.4528 19.6335 34.5235 19.9105 34.6648 20.1536C34.8061 20.3966 35.0011 20.5888 35.2499 20.7301C35.4986 20.8715 35.784 20.9421 36.1063 20.9421C36.2815 20.9421 36.4596 20.911 36.6404 20.8489C36.827 20.781 36.9768 20.7047 37.0898 20.6199C37.1746 20.5577 37.2651 20.5267 37.3612 20.5267C37.4629 20.521 37.5505 20.5493 37.624 20.6114C37.7201 20.6962 37.771 20.7895 37.7767 20.8913C37.7823 20.993 37.7371 21.0806 37.641 21.1541C37.4488 21.3067 37.2085 21.4311 36.9203 21.5272C36.6376 21.6233 36.3663 21.6713 36.1063 21.6713Z" fill="#8B92C0"/>
<path d="M41.1307 21.6713C40.6898 21.6713 40.2913 21.5696 39.9351 21.3661C39.5847 21.1569 39.3048 20.8743 39.0957 20.5182C38.8922 20.162 38.7904 19.7607 38.7904 19.3141C38.7904 18.8676 38.8837 18.469 39.0703 18.1186C39.2624 17.7624 39.5225 17.4826 39.8503 17.2791C40.1782 17.07 40.5485 16.9654 40.9611 16.9654C41.2946 16.9654 41.6027 17.0361 41.8853 17.1774C42.168 17.313 42.4054 17.4996 42.5976 17.737V15.4476C42.5976 15.3176 42.6372 15.213 42.7163 15.1339C42.8011 15.0548 42.9057 15.0152 43.03 15.0152C43.16 15.0152 43.2646 15.0548 43.3438 15.1339C43.4229 15.213 43.4625 15.3176 43.4625 15.4476V19.3141C43.4625 19.7607 43.3579 20.162 43.1487 20.5182C42.9452 20.8743 42.6682 21.1569 42.3178 21.3661C41.9673 21.5696 41.5716 21.6713 41.1307 21.6713ZM41.1307 20.9082C41.419 20.9082 41.6762 20.8404 41.9023 20.7047C42.1284 20.5634 42.3065 20.3712 42.4365 20.1281C42.5665 19.8851 42.6315 19.6137 42.6315 19.3141C42.6315 19.0089 42.5665 18.7375 42.4365 18.5001C42.3065 18.2627 42.1284 18.0762 41.9023 17.9405C41.6762 17.7992 41.419 17.7285 41.1307 17.7285C40.848 17.7285 40.5908 17.7992 40.3591 17.9405C40.133 18.0762 39.9521 18.2627 39.8164 18.5001C39.6864 18.7375 39.6214 19.0089 39.6214 19.3141C39.6214 19.6137 39.6864 19.8851 39.8164 20.1281C39.9521 20.3712 40.133 20.5634 40.3591 20.7047C40.5908 20.8404 40.848 20.9082 41.1307 20.9082Z" fill="#8B92C0"/>
<path d="M34.8427 18.9441L34.8339 19.6188L34.3013 19.6119L34.31 18.9372L34.8427 18.9441Z" fill="#8B92C0"/>
<path d="M37.5981 18.7017L37.7691 18.9087L37.3583 19.2478L37.1874 19.0408L37.5981 18.7017Z" fill="#8B92C0"/>
<path d="M14.6458 18.1145H15.4166V20.0416H14.6458V18.1145Z" fill="#8B92C0"/>
<path d="M15.4978 18.6941L16.0816 19.4012L15.4079 19.9574L14.8241 19.2503L15.4978 18.6941Z" fill="#8B92C0"/>
<path d="M16.0525 18.491L16.5004 19.0334L15.8645 19.5584L15.4166 19.0159L16.0525 18.491Z" fill="#8B92C0"/>
</svg>
