<svg width="30" height="30" viewBox="0 0 31 32" fill="none" xmlns="http://www.w3.org/2000/svg">
    <path d="M5.33475 18.5462C4.42275 16.9712 4.42275 15.0288 5.33475 13.4538C5.62475 12.953 6.1145 12.5995 6.68118 12.4821L8.806 12.0418C8.93628 12.0148 9.05312 11.9433 9.1365 11.8396L12.5947 7.53972C13.7803 6.06557 14.373 5.3285 14.9073 5.51667C15.4415 5.70484 15.4415 6.65071 15.4415 8.54246L15.4415 23.4575C15.4415 25.3493 15.4415 26.2952 14.9073 26.4833C14.373 26.6715 13.7803 25.9344 12.5947 24.4603L9.1365 20.1604C9.05312 20.0567 8.93628 19.9852 8.806 19.9582L6.68118 19.5179C6.1145 19.4005 5.62475 19.047 5.33475 18.5462Z" fill="#8b92c0"/>
    <path d="M18.7042 11.2859C19.9046 12.5297 20.5819 14.2147 20.5886 15.9737C20.5953 17.7327 19.9308 19.4231 18.7399 20.6767" stroke="#8b92c0" stroke-width="2" stroke-linecap="round"/>
    <path d="M24.0076 8.45745C25.9283 10.4475 27.012 13.1435 27.0227 15.9579C27.0334 18.7723 25.9702 21.477 24.0647 23.4827" stroke="#8b92c0" stroke-width="2" stroke-linecap="round"/>
</svg>
