<svg width="78" height="74" viewBox="0 0 78 74" fill="none" xmlns="http://www.w3.org/2000/svg">
<path d="M77.2157 29.5086C77.883 28.9295 77.5264 27.8329 76.6462 27.757L50.24 25.48L39.9212 1.17023C39.5763 0.357629 38.4245 0.357942 38.08 1.17073L27.76 25.52L1.36163 27.7596C0.480203 27.8344 0.122796 28.9327 0.791394 29.5119L20.84 46.88L14.8184 72.692C14.6175 73.5535 15.5517 74.2325 16.309 73.7754L39 60.08L61.6948 73.7777C62.4516 74.2344 63.3854 73.5567 63.1857 72.6957L57.2 46.88L77.2157 29.5086ZM39 52.6V17.864C39 17.3191 39.748 17.1673 39.9605 17.6691L45.84 31.56L61.0072 32.8759C61.8873 32.9522 62.2433 34.0487 61.5761 34.6275L50.08 44.6L53.5399 59.4083C53.7413 60.2702 52.806 60.9495 52.0486 60.4915L39 52.6Z" fill="white"/>
</svg>
