<svg width="24" height="21" viewBox="0 0 24 21" fill="none" xmlns="http://www.w3.org/2000/svg">
<path d="M18 8.75C18 8.51794 17.8947 8.29538 17.7071 8.13128C17.5196 7.96719 17.2652 7.875 17 7.875H5.41002L7.71002 5.87125C7.89832 5.70649 8.00411 5.48302 8.00411 5.25C8.00411 5.01699 7.89832 4.79352 7.71002 4.62875C7.52171 4.46399 7.26632 4.37142 7.00002 4.37142C6.73372 4.37142 6.47832 4.46399 6.29002 4.62875L2.29002 8.12875C2.15126 8.2518 2.05726 8.40805 2.01989 8.57779C1.98252 8.74753 2.00344 8.92316 2.08002 9.0825C2.15504 9.24229 2.28244 9.37908 2.44616 9.47562C2.60988 9.57216 2.80259 9.62414 3.00002 9.625H17C17.2652 9.625 17.5196 9.53281 17.7071 9.36872C17.8947 9.20463 18 8.98207 18 8.75ZM21.92 11.9175C21.845 11.7577 21.7176 11.6209 21.5539 11.5244C21.3902 11.4278 21.1974 11.3759 21 11.375H7.00002C6.7348 11.375 6.48045 11.4672 6.29291 11.6313C6.10537 11.7954 6.00002 12.0179 6.00002 12.25C6.00002 12.4821 6.10537 12.7046 6.29291 12.8687C6.48045 13.0328 6.7348 13.125 7.00002 13.125H18.59L16.29 15.1288C16.1963 15.2101 16.1219 15.3069 16.0711 15.4135C16.0204 15.5201 15.9942 15.6345 15.9942 15.75C15.9942 15.8655 16.0204 15.9799 16.0711 16.0865C16.1219 16.1931 16.1963 16.2899 16.29 16.3713C16.383 16.4533 16.4936 16.5184 16.6154 16.5628C16.7373 16.6072 16.868 16.6301 17 16.6301C17.132 16.6301 17.2627 16.6072 17.3846 16.5628C17.5065 16.5184 17.6171 16.4533 17.71 16.3713L21.71 12.8713C21.8488 12.7482 21.9428 12.592 21.9801 12.4222C22.0175 12.2525 21.9966 12.0768 21.92 11.9175V11.9175Z"/>
</svg>
